<svg xmlns="http://www.w3.org/2000/svg" version="1.1" xmlns:xlink="http://www.w3.org/1999/xlink" xmlns:svgjs="http://svgjs.dev/svgjs" viewBox="0 0 800 800" opacity="1"><defs><symbol id="bbburst-shape-1" viewBox="0 0 194 167"><path d="m97 0 96.129 166.5H.871L97 0Z"></path></symbol><symbol id="bbburst-shape-4" viewBox="0 0 149 143"><path d="M71.647 2.781c.898-2.764 4.808-2.764 5.706 0l15.445 47.534a3 3 0 0 0 2.853 2.073h49.98c2.906 0 4.115 3.719 1.764 5.427L106.96 87.193a2.999 2.999 0 0 0-1.09 3.354l15.445 47.534c.898 2.764-2.266 5.062-4.617 3.354l-40.435-29.378a3 3 0 0 0-3.526 0l-40.435 29.378c-2.351 1.708-5.515-.59-4.617-3.354L43.13 90.547a3 3 0 0 0-1.09-3.354L1.605 57.815c-2.35-1.708-1.142-5.427 1.764-5.427h49.98a3 3 0 0 0 2.853-2.073L71.647 2.781Z"></path></symbol><symbol id="bbburst-shape-5" viewBox="0 0 145 145"><circle cx="72.5" cy="72.5" r="72.5"></circle></symbol><symbol id="bbburst-shape-8" viewBox="0 0 87 168"><path d="m12 12 31.2546 18.0749c16.4102 9.4902 20.014 31.6325 7.4603 45.8369L36.3296 92.1884c-12.5684 14.2206-8.9394 36.3916 7.5068 45.8636L75 156" stroke-width="14" stroke-linecap="round" stroke-linejoin="round"></path></symbol><symbol id="bbburst-shape-10" viewBox="0 0 145 145"><circle cx="72.5" cy="72.5" r="61.5" fill="none" stroke-width="22"></circle></symbol></defs><use xlink:href="#bbburst-shape-8" width="35.413160740019066" opacity="0.09774199081545654" transform="matrix(0.9945842319021362,0.10393365985876708,-0.10393365985876708,0.9945842319021362,784.1896669561162,-186.98564587064018)" fill="none" stroke="#ffa6d5"></use><use xlink:href="#bbburst-shape-8" width="15.158932100503634" opacity="0.7185157668954298" transform="matrix(0.7097948160502803,0.7044084888103982,-0.7044084888103982,0.7097948160502803,687.3859673967636,-15.446117989699985)" fill="none" stroke="#ffa6d5"></use><use xlink:href="#bbburst-shape-8" width="39.53210059975397" opacity="0.20482170782786413" transform="matrix(0.9640972084504955,0.2655495672336181,-0.2655495672336181,0.9640972084504955,711.4853821878069,-269.6746536265825)" fill="none" stroke="#2c2891"></use><use xlink:href="#bbburst-shape-4" width="39.4097494143757" opacity="0.22700458640271926" transform="matrix(0.8354614247343909,0.5495490949685766,-0.5495490949685766,0.8354614247343909,258.2788208102626,11.052441736772096)" fill="#00a19d"></use><use xlink:href="#bbburst-shape-10" width="20.40546079144079" opacity="0.6563823498938388" transform="matrix(0.9998234917101847,0.01878790633504033,-0.01878790633504033,0.9998234917101847,540.9091756347827,57.2399434630546)" fill="none" stroke="#00a19d"></use><use xlink:href="#bbburst-shape-1" width="8.006997442605844" opacity="0.927854915317088" transform="matrix(0.9735378401164203,-0.2285258713175714,0.2285258713175714,0.9735378401164203,323.66865249726163,-14.833587869305632)" fill="#00a19d"></use><use xlink:href="#bbburst-shape-4" width="21.900364015572787" opacity="0.7262947055897151" transform="matrix(0.8808263268735518,-0.47343952294506103,0.47343952294506103,0.8808263268735518,79.52631258799792,73.29618073838145)" fill="#00a19d"></use><use xlink:href="#bbburst-shape-10" width="25.82026013979319" opacity="0.5674554837782388" transform="matrix(0.9611406974375433,-0.27605897871518853,0.27605897871518853,0.9611406974375433,157.26022586677888,172.43357464204746)" fill="none" stroke="#ffbd9b"></use><use xlink:href="#bbburst-shape-4" width="10.394880418715578" opacity="0.9321754813675953" transform="matrix(0.9981888163600562,0.060158847177369516,-0.060158847177369516,0.9981888163600562,394.99692579077254,-18.58865073424829)" fill="#2c2891"></use><use xlink:href="#bbburst-shape-10" width="44.59291707316392" opacity="-0.08626409698354998" transform="matrix(0.9247407489472145,-0.3805976185376687,0.3805976185376687,0.9247407489472145,-122.15733314016799,-303.3656970733251)" fill="none" stroke="#ffa6d5"></use><use xlink:href="#bbburst-shape-1" width="21.803061021522453" opacity="0.7631648359172458" transform="matrix(0.9597156646206146,0.2809730291003249,-0.2809730291003249,0.9597156646206146,488.5307623376643,118.80922941892612)" fill="#00a19d"></use><use xlink:href="#bbburst-shape-10" width="11.83819397467199" opacity="0.9380573942159043" transform="matrix(0.8727037976848956,-0.48825001946375873,0.48825001946375873,0.8727037976848956,173.56969227643705,63.9477586051716)" fill="none" stroke="#00a19d"></use><use xlink:href="#bbburst-shape-5" width="46.84102378197528" opacity="-0.0722495813543329" transform="matrix(0.7073616152114005,-0.7068518552890122,0.7068518552890122,0.7073616152114005,-253.77820716210388,460.97641283766416)" fill="#00a19d"></use><use xlink:href="#bbburst-shape-5" width="11.17061197826563" opacity="0.8260289437861841" transform="matrix(0.9335402114600295,0.35847269573450546,-0.35847269573450546,0.9335402114600295,593.6847413599014,79.78605356875948)" fill="#2c2891"></use><use xlink:href="#bbburst-shape-5" width="32.6260923203826" opacity="0.3029405303313125" transform="matrix(0.8019076301370835,0.5974480334957396,-0.5974480334957396,0.8019076301370835,339.5288187060552,-58.51706509035506)" fill="#ffbd9b"></use><use xlink:href="#bbburst-shape-5" width="23.780835159488447" opacity="0.6771913783857806" transform="matrix(0.9853716365507496,-0.17041930020187732,0.17041930020187732,0.9853716365507496,259.57769588477646,139.92591231469066)" fill="#ffbd9b"></use><use xlink:href="#bbburst-shape-10" width="33.84513477743564" opacity="0.5001464719707129" transform="matrix(0.7918936977754775,0.6106589649087949,-0.6106589649087949,0.7918936977754775,414.66424091765487,134.98565433874614)" fill="none" stroke="#2c2891"></use><use xlink:href="#bbburst-shape-8" width="9.373337396061748" opacity="0.9215919420202114" transform="matrix(0.9755400164784358,0.21982191940125786,-0.21982191940125786,0.9755400164784358,480.8310217582256,-26.43935019728076)" fill="none" stroke="#2c2891"></use><use xlink:href="#bbburst-shape-8" width="51.559865174628726" opacity="0.1644376860487159" transform="matrix(0.8470227799748984,-0.5315565917224571,0.5315565917224571,0.8470227799748984,23.01979295099656,422.83971256234923)" fill="none" stroke="#00a19d"></use><use xlink:href="#bbburst-shape-8" width="44.75503376755893" opacity="0.21935902362094795" transform="matrix(0.9630319540524104,0.2693871850589706,-0.2693871850589706,0.9630319540524104,745.6583530524294,245.586646005043)" fill="none" stroke="#ffa6d5"></use><use xlink:href="#bbburst-shape-10" width="14.462688243891334" opacity="0.7959656275160727" transform="matrix(0.9820920940683645,-0.1884014829252008,0.1884014829252008,0.9820920940683645,276.58652802294785,-73.65164841799822)" fill="none" stroke="#00a19d"></use><use xlink:href="#bbburst-shape-8" width="23.112841811534963" opacity="0.6877282450129186" transform="matrix(0.9981681094412223,-0.0605014486978308,0.0605014486978308,0.9981681094412223,504.77092792929164,3.5225629377084147)" fill="none" stroke="#00a19d"></use><use xlink:href="#bbburst-shape-1" width="28.830466976632646" opacity="0.46688080256119846" transform="matrix(0.8312812554319192,-0.5558520256035164,0.5558520256035164,0.8312812554319192,399.4594929442301,21.5985798723367)" fill="#00a19d"></use><use xlink:href="#bbburst-shape-8" width="36.75456304063251" opacity="0.3229131364426693" transform="matrix(0.7725612400526994,0.6349402573220848,-0.6349402573220848,0.7725612400526994,416.53780354263256,-128.0550509737584)" fill="none" stroke="#ffbd9b"></use><use xlink:href="#bbburst-shape-8" width="13.22037291124557" opacity="0.8063953331618754" transform="matrix(0.9247720226616979,-0.3805216236985647,0.3805216236985647,0.9247720226616979,241.7278499966914,-54.5155711566141)" fill="none" stroke="#2c2891"></use><use xlink:href="#bbburst-shape-4" width="8.365608101467775" opacity="0.9668905718790696" transform="matrix(0.9699295046128678,0.24338602277336482,-0.24338602277336482,0.9699295046128678,490.78931444100544,25.704458919839)" fill="#00a19d"></use><use xlink:href="#bbburst-shape-1" width="40.19708378776095" opacity="0.1766687948222707" transform="matrix(0.997721398166739,-0.067468597437678,0.067468597437678,0.997721398166739,90.0213565407143,263.3384440806964)" fill="#ffa6d5"></use><use xlink:href="#bbburst-shape-8" width="39.03436552539222" opacity="0.4175663235325804" transform="matrix(0.9969514507145887,-0.07802438668824674,0.07802438668824674,0.9969514507145887,580.5063633502615,126.2433937208786)" fill="none" stroke="#00a19d"></use><use xlink:href="#bbburst-shape-10" width="9.34661213518018" opacity="0.9780852787067951" transform="matrix(0.7161020582284165,0.697995588955278,-0.697995588955278,0.7161020582284165,673.7481812408648,100.66255516632538)" fill="none" stroke="#2c2891"></use><use xlink:href="#bbburst-shape-5" width="41.669944610701" opacity="0.19322066279120165" transform="matrix(0.9787655931229103,0.20498271565855872,-0.20498271565855872,0.9787655931229103,746.6315980613783,-220.6394803478178)" fill="#2c2891"></use><use xlink:href="#bbburst-shape-10" width="31.840343275689232" opacity="0.07541032610239451" transform="matrix(0.974548713787875,0.22417583378767328,-0.22417583378767328,0.974548713787875,694.6211452342222,359.46457527498876)" fill="none" stroke="#2c2891"></use><use xlink:href="#bbburst-shape-8" width="12.780048263499049" opacity="0.7659272138380361" transform="matrix(0.8771373956408541,0.48023951229400075,-0.48023951229400075,0.8771373956408541,677.9501379936896,98.32759066659423)" fill="none" stroke="#00a19d"></use><use xlink:href="#bbburst-shape-4" width="13.306633473238549" opacity="0.8529379024523449" transform="matrix(0.9801622098678069,0.19819697865269606,-0.19819697865269606,0.9801622098678069,538.2177879567223,-3.0749339958236988)" fill="#ffa6d5"></use><use xlink:href="#bbburst-shape-10" width="32.535710358836425" opacity="0.4988720361592268" transform="matrix(0.9303359457664461,0.3667083691639069,-0.3667083691639069,0.9303359457664461,451.1902487654787,232.6040669095882)" fill="none" stroke="#ffa6d5"></use><use xlink:href="#bbburst-shape-5" width="39.48874282084683" opacity="0.21685352375540878" transform="matrix(0.9998751908887643,0.01579881784049493,-0.01579881784049493,0.9998751908887643,731.6342529420427,-71.90635196923029)" fill="#ffa6d5"></use><use xlink:href="#bbburst-shape-1" width="13.132831525546974" opacity="0.8956929794870826" transform="matrix(0.9863341788365834,-0.16475705647638514,0.16475705647638514,0.9863341788365834,303.9410145200392,47.09067555012808)" fill="#ffa6d5"></use><use xlink:href="#bbburst-shape-8" width="9.192509401987905" opacity="0.9159038492643344" transform="matrix(0.9643633282831868,0.2645815017392077,-0.2645815017392077,0.9643633282831868,538.9176294072382,8.083689039756678)" fill="none" stroke="#ff5c58"></use><use xlink:href="#bbburst-shape-4" width="17.071191665340663" opacity="0.7234373716816267" transform="matrix(0.7405892308033583,0.6719580278693679,-0.6719580278693679,0.7405892308033583,542.1469881421618,66.17419504286875)" fill="#2c2891"></use><use xlink:href="#bbburst-shape-8" width="20.94183722901563" opacity="0.6088711951380376" transform="matrix(0.913585749676668,-0.4066461336195399,0.4066461336195399,0.913585749676668,241.1333688023972,-136.676689585548)" fill="none" stroke="#ffbd9b"></use><use xlink:href="#bbburst-shape-4" width="18.672444091119576" opacity="0.7741607160721178" transform="matrix(0.9929495844547855,-0.11853743177186139,0.11853743177186139,0.9929495844547855,385.50943324704974,96.39882973069234)" fill="#00a19d"></use><use xlink:href="#bbburst-shape-5" width="43.62394232993383" opacity="0.28678925430292823" transform="matrix(0.8434213647429974,0.537252642148049,-0.537252642148049,0.8434213647429974,755.5734680039461,329.66481640358575)" fill="#ffbd9b"></use><use xlink:href="#bbburst-shape-5" width="24.17116275217439" opacity="0.6960904187560684" transform="matrix(0.9617733909931764,0.2738465708704177,-0.2738465708704177,0.9617733909931764,416.95818183155734,-98.24191081114782)" fill="#00a19d"></use><use xlink:href="#bbburst-shape-5" width="47.83097528131764" opacity="0.23516050850704606" transform="matrix(0.9764678400247966,0.21566306451803074,-0.21566306451803074,0.9764678400247966,287.47679563467625,-291.854010087223)" fill="#00a19d"></use><use xlink:href="#bbburst-shape-10" width="23.52506068780061" opacity="0.6329933834416346" transform="matrix(0.7260752321465802,0.687615268346544,-0.687615268346544,0.7260752321465802,521.0572876444211,179.71408854962232)" fill="none" stroke="#ffa6d5"></use><use xlink:href="#bbburst-shape-5" width="20.655867644970648" opacity="0.6850518166384167" transform="matrix(0.7590283255957165,-0.6510576018628175,0.6510576018628175,0.7590283255957165,162.8481990636579,241.38275902651077)" fill="#00a19d"></use><use xlink:href="#bbburst-shape-5" width="11.903387771754893" opacity="0.9139466704984146" transform="matrix(0.9933285262901486,-0.11531885734016653,0.11531885734016653,0.9933285262901486,378.54811459785606,27.102430316939888)" fill="#ffa6d5"></use><use xlink:href="#bbburst-shape-1" width="35.12874556880878" opacity="0.19718891864915844" transform="matrix(0.8961489530194702,-0.44375337069379817,0.44375337069379817,0.8961489530194702,182.1755355722216,409.80147188227915)" fill="#ffbd9b"></use><use xlink:href="#bbburst-shape-4" width="26.668329817444953" opacity="0.1894165849567152" transform="matrix(0.9906314581739438,0.13656249146879892,-0.13656249146879892,0.9906314581739438,804.1452432831451,40.377121041719136)" fill="#ffa6d5"></use><use xlink:href="#bbburst-shape-10" width="39.5629407853962" opacity="0.29894291111394666" transform="matrix(0.9456134022011915,0.32529262761010674,-0.32529262761010674,0.9456134022011915,639.3117255312965,-273.06602482470544)" fill="none" stroke="#00a19d"></use><use xlink:href="#bbburst-shape-10" width="51.21318103322781" opacity="0.11208724673392279" transform="matrix(0.9867974147280105,-0.16195944642445126,0.16195944642445126,0.9867974147280105,-44.318895383607604,194.20912674137645)" fill="none" stroke="#2c2891"></use><use xlink:href="#bbburst-shape-8" width="29.446928862117453" opacity="0.3524677287005801" transform="matrix(0.7746920700272703,-0.6323386724191894,0.6323386724191894,0.7746920700272703,82.86041801110218,385.9996491253283)" fill="none" stroke="#ffbd9b"></use><use xlink:href="#bbburst-shape-10" width="38.64174434388186" opacity="0.28915391006874613" transform="matrix(0.9570955773708982,0.28977242066329734,-0.28977242066329734,0.9570955773708982,507.5971631722134,-308.15559118023964)" fill="none" stroke="#2c2891"></use><use xlink:href="#bbburst-shape-4" width="32.508477077405004" opacity="0.5475522700472893" transform="matrix(0.9846530918263763,-0.17452303216698303,0.17452303216698303,0.9846530918263763,515.2658391348592,40.981252695799014)" fill="#00a19d"></use><use xlink:href="#bbburst-shape-8" width="40.44687172358314" opacity="0.38194030432218495" transform="matrix(0.9744279825719325,-0.22470003734043653,0.22470003734043653,0.9744279825719325,567.7907552248155,35.18173469912756)" fill="none" stroke="#ffa6d5"></use><use xlink:href="#bbburst-shape-5" width="14.472827773883497" opacity="0.8585956350862946" transform="matrix(0.9143712975276985,0.4048766852481296,-0.4048766852481296,0.9143712975276985,615.175237348917,52.95593995094117)" fill="#2c2891"></use><use xlink:href="#bbburst-shape-1" width="13.9817096922545" opacity="0.8186562266919641" transform="matrix(0.8420385509228439,0.5394173511852927,-0.5394173511852927,0.8420385509228439,528.4320443105131,54.225091853375886)" fill="#2c2891"></use><use xlink:href="#bbburst-shape-4" width="16.244730443391788" opacity="0.6945956858012761" transform="matrix(0.9797654946443616,0.20014888334509737,-0.20014888334509737,0.9797654946443616,438.1268058655387,-126.68446672091534)" fill="#2c2891"></use><use xlink:href="#bbburst-shape-1" width="11.244062558704917" opacity="0.8719229301352532" transform="matrix(0.9703265749487195,-0.241798134708039,0.241798134708039,0.9703265749487195,278.4911083238276,-41.05082212853955)" fill="#ff5c58"></use><use xlink:href="#bbburst-shape-5" width="9.404718452209467" opacity="0.9633844895952444" transform="matrix(0.9978311296636563,0.06582580553363233,-0.06582580553363233,0.9978311296636563,437.982385766625,2.6453954897821177)" fill="#00a19d"></use><use xlink:href="#bbburst-shape-8" width="24.76749919044785" opacity="0.632022800229449" transform="matrix(0.9327228272855683,-0.3605941312062855,0.3605941312062855,0.9327228272855683,226.0098481537542,195.96268567372573)" fill="none" stroke="#ffa6d5"></use><use xlink:href="#bbburst-shape-10" width="44.71232370917801" opacity="0.3475818742707334" transform="matrix(0.8533371803916759,-0.5213594312575388,0.5213594312575388,0.8533371803916759,11.87727991609313,316.15244331940175)" fill="none" stroke="#ffbd9b"></use><use xlink:href="#bbburst-shape-4" width="15.98501685667597" opacity="0.8011701005003442" transform="matrix(0.8664725436700573,0.4992247300224025,-0.4992247300224025,0.8664725436700573,643.2927323193286,-24.40196013561649)" fill="#ffbd9b"></use><use xlink:href="#bbburst-shape-10" width="27.814976105279374" opacity="0.3769620567734102" transform="matrix(0.7274210276588197,-0.6861914080777949,0.6861914080777949,0.7274210276588197,176.21801729396594,392.2674993008877)" fill="none" stroke="#00a19d"></use><use xlink:href="#bbburst-shape-10" width="32.07867274650292" opacity="0.10343453317263307" transform="matrix(0.9782432405667622,-0.20746123080093748,0.20746123080093748,0.9782432405667622,-17.46515751623744,-235.25149272316594)" fill="none" stroke="#2c2891"></use><use xlink:href="#bbburst-shape-8" width="24.222787608612276" opacity="0.6219538456539235" transform="matrix(0.9548433159289267,-0.2971098147585365,0.2971098147585365,0.9548433159289267,433.1995882673056,-24.959695502268175)" fill="none" stroke="#00a19d"></use><use xlink:href="#bbburst-shape-10" width="31.452447545961196" opacity="0.3530604008653525" transform="matrix(0.8684225313161835,0.495824875437278,-0.495824875437278,0.8684225313161835,503.9553102945637,-234.87551120230654)" fill="none" stroke="#ffbd9b"></use><use xlink:href="#bbburst-shape-4" width="26.187217078189107" opacity="0.4627333252020781" transform="matrix(0.7502249765218436,-0.661182640881322,0.661182640881322,0.7502249765218436,-89.65530891504457,-1.2622122769855082)" fill="#00a19d"></use><use xlink:href="#bbburst-shape-8" width="11.507401570178352" opacity="0.8769601412483455" transform="matrix(0.9983655994208686,-0.057150064680714374,0.057150064680714374,0.9983655994208686,414.0782610308702,-34.285042670039786)" fill="none" stroke="#2c2891"></use><use xlink:href="#bbburst-shape-5" width="16.904628836809604" opacity="0.7083002708291364" transform="matrix(0.8460936371154595,0.5330342927361552,-0.5330342927361552,0.8460936371154595,700.2694155924867,148.46551482861804)" fill="#00a19d"></use><use xlink:href="#bbburst-shape-8" width="11.970356959309507" opacity="0.8671404004963937" transform="matrix(0.9194494130229279,0.39320831233812104,-0.39320831233812104,0.9194494130229279,504.23104131933604,-6.375958554694364)" fill="none" stroke="#00a19d"></use><use xlink:href="#bbburst-shape-10" width="15.611662127748367" opacity="0.7801596443829304" transform="matrix(0.9770458426726908,0.21302915602332828,-0.21302915602332828,0.9770458426726908,574.8926757860046,25.351201708337044)" fill="none" stroke="#2c2891"></use><use xlink:href="#bbburst-shape-4" width="33.20359306242064" opacity="0.41675011182679" transform="matrix(0.8799809454397829,-0.47500898482334614,0.47500898482334614,0.8799809454397829,366.8398335326709,-142.8143294463911)" fill="#ffa6d5"></use><use xlink:href="#bbburst-shape-8" width="32.837192133278755" opacity="0.4356687534731821" transform="matrix(0.8868342595262143,0.4620876498356034,-0.4620876498356034,0.8868342595262143,317.212559510412,16.471235881589337)" fill="none" stroke="#ff5c58"></use><use xlink:href="#bbburst-shape-8" width="11.618637256436848" opacity="0.9183267042934518" transform="matrix(0.9570604560979458,-0.28988839813554446,0.28988839813554446,0.9570604560979458,282.7436663219005,55.36525937168091)" fill="none" stroke="#ffa6d5"></use><use xlink:href="#bbburst-shape-5" width="31.843330219259922" opacity="0.5808081864204472" transform="matrix(0.8015253825695837,-0.5979607521373643,0.5979607521373643,0.8015253825695837,73.98765280059902,-84.57687071037074)" fill="#2c2891"></use><use xlink:href="#bbburst-shape-10" width="29.833903484705907" opacity="0.1678620795898471" transform="matrix(0.8865624943316438,-0.4626088451861399,0.4626088451861399,0.8865624943316438,116.26829840490296,-312.3032919202186)" fill="none" stroke="#2c2891"></use><use xlink:href="#bbburst-shape-10" width="28.349308339771913" opacity="0.5518702584742115" transform="matrix(0.9218058192982541,0.3876519463486215,-0.3876519463486215,0.9218058192982541,704.778943660368,-93.24375109152368)" fill="none" stroke="#ffbd9b"></use><use xlink:href="#bbburst-shape-8" width="40.16908529373877" opacity="0.23182236463056372" transform="matrix(0.9943373849031462,-0.10626930405329935,0.10626930405329935,0.9943373849031462,660.7547753150182,126.93447662154415)" fill="none" stroke="#2c2891"></use><use xlink:href="#bbburst-shape-4" width="28.370923009228743" opacity="0.31915300379438183" transform="matrix(0.7939246402159748,-0.6080161722009827,0.6080161722009827,0.7939246402159748,-109.06785883404245,261.4888998478106)" fill="#ffa6d5"></use><use xlink:href="#bbburst-shape-5" width="14.414583054588782" opacity="0.8108961186438278" transform="matrix(0.9759348137621426,-0.218062466479337,0.218062466479337,0.9759348137621426,260.6426457095589,83.36128348802123)" fill="#00a19d"></use><use xlink:href="#bbburst-shape-1" width="23.342689374744975" opacity="0.5888940055746938" transform="matrix(0.9455564036288333,0.325458273141899,-0.325458273141899,0.9455564036288333,342.69999611640304,-37.61567467366183)" fill="#ffbd9b"></use><use xlink:href="#bbburst-shape-10" width="10.87369893833688" opacity="0.8068770510591265" transform="matrix(0.9070829014691417,0.4209520279821959,-0.4209520279821959,0.9070829014691417,635.3798814797647,-13.891721844073913)" fill="none" stroke="#2c2891"></use><use xlink:href="#bbburst-shape-1" width="23.472123130167226" opacity="0.1667905332508517" transform="matrix(0.861602743052495,0.5075832081190398,-0.5075832081190398,0.861602743052495,678.6975886706088,-315.5693368892494)" fill="#00a19d"></use><use xlink:href="#bbburst-shape-8" width="29.394061618768443" opacity="0.5362309765741355" transform="matrix(0.9999915568208789,-0.004109292756032113,0.004109292756032113,0.9999915568208789,456.8965107378454,195.4873248894823)" fill="none" stroke="#2c2891"></use><use xlink:href="#bbburst-shape-1" width="59.24856677803703" opacity="-0.06634415679379102" transform="matrix(0.819234926265242,-0.5734580504162301,0.5734580504162301,0.819234926265242,487.0190369829457,427.34126132502234)" fill="#2c2891"></use><use xlink:href="#bbburst-shape-5" width="12.589284888918776" opacity="0.8443754924766211" transform="matrix(0.9802968743358456,-0.19752984120727543,0.19752984120727543,0.9802968743358456,314.0194623878312,79.15111343033715)" fill="#00a19d"></use><use xlink:href="#bbburst-shape-4" width="17.794645230717435" opacity="0.7696776438837846" transform="matrix(0.8983294727988136,-0.4393223853857274,0.4393223853857274,0.8983294727988136,317.07313739432914,20.422667325736768)" fill="#ffa6d5"></use><use xlink:href="#bbburst-shape-5" width="25.286389473298687" opacity="0.6135437963649637" transform="matrix(0.9684420412810704,-0.24923886671093962,0.24923886671093962,0.9684420412810704,114.32609715768594,23.487702370310387)" fill="#2c2891"></use><use xlink:href="#bbburst-shape-10" width="38.21909255273789" opacity="0.11969270767601681" transform="matrix(0.9566203213463645,-0.2913375375525411,0.2913375375525411,0.9566203213463645,-99.19347181398679,-132.49735008181864)" fill="none" stroke="#2c2891"></use><use xlink:href="#bbburst-shape-10" width="15.04368791479679" opacity="0.8604078742621392" transform="matrix(0.9820946459337476,0.1883881801713335,-0.1883881801713335,0.9820946459337476,412.87187361825676,35.916503096254644)" fill="none" stroke="#2c2891"></use><use xlink:href="#bbburst-shape-1" width="18.44922524357208" opacity="0.6810036560539856" transform="matrix(0.9926413740112824,0.12109129861799921,-0.12109129861799921,0.9926413740112824,532.6727614696849,-107.16073665700958)" fill="#ffbd9b"></use><use xlink:href="#bbburst-shape-10" width="32.789145498011194" opacity="0.4849694973227251" transform="matrix(0.862814773610969,0.505520193897981,-0.505520193897981,0.862814773610969,566.793116448852,-184.19937183452856)" fill="none" stroke="#ffa6d5"></use><use xlink:href="#bbburst-shape-1" width="32.816083343024914" opacity="0.031213603085668895" transform="matrix(0.9867129396471918,-0.16247330467740664,0.16247330467740664,0.9867129396471918,67.34528374822192,364.1298037212384)" fill="#ffa6d5"></use><use xlink:href="#bbburst-shape-1" width="36.67339654605059" opacity="0.07541782758381843" transform="matrix(0.9501821433591495,-0.3116951947679216,0.3116951947679216,0.9501821433591495,615.2645742915456,238.77845169840742)" fill="#ffbd9b"></use><use xlink:href="#bbburst-shape-4" width="27.990150949132648" opacity="0.5821163119039994" transform="matrix(0.8659723158510264,-0.5000919397266967,0.5000919397266967,0.8659723158510264,278.4249243801698,-104.16880886559835)" fill="#ffa6d5"></use><use xlink:href="#bbburst-shape-10" width="37.02594265222944" opacity="0.059908970231442926" transform="matrix(0.9589810482825462,-0.28347019073424423,0.28347019073424423,0.9589810482825462,488.28634262128764,-340.02813279230116)" fill="none" stroke="#ffbd9b"></use><use xlink:href="#bbburst-shape-5" width="31.705081031956038" opacity="0.4389797708647688" transform="matrix(0.9539302415638877,-0.30002848903039664,0.30002848903039664,0.9539302415638877,133.01379597869814,-192.10753201191704)" fill="#2c2891"></use><use xlink:href="#bbburst-shape-8" width="16.728860683789144" opacity="0.7890319374371805" transform="matrix(0.9231956384901667,0.38433034367940994,-0.38433034367940994,0.9231956384901667,468.536352376403,-27.361809071667665)" fill="none" stroke="#00a19d"></use><use xlink:href="#bbburst-shape-10" width="37.67878740812724" opacity="0.05443254654457763" transform="matrix(0.8912731025539304,-0.4534669300664504,0.4534669300664504,0.8912731025539304,-33.080966549059156,-302.7553155572747)" fill="none" stroke="#00a19d"></use><use xlink:href="#bbburst-shape-8" width="10.27137640025915" opacity="0.8664523692405338" transform="matrix(0.8835490497362478,0.46833863465464115,-0.46833863465464115,0.8835490497362478,608.6101775065947,98.4457801179422)" fill="none" stroke="#ff5c58"></use><use xlink:href="#bbburst-shape-4" width="17.725227672637793" opacity="0.7260691730432396" transform="matrix(0.9878487895310154,0.1554180459988724,-0.1554180459988724,0.9878487895310154,499.809191440729,-110.70397312031974)" fill="#2c2891"></use><use xlink:href="#bbburst-shape-5" width="17.42586336744884" opacity="0.7148300947747859" transform="matrix(0.9999979991558602,-0.002000421024764471,0.002000421024764471,0.9999979991558602,300.4212144236033,91.42857980858446)" fill="#2c2891"></use><use xlink:href="#bbburst-shape-8" width="21.05652323103082" opacity="0.7073820384555607" transform="matrix(0.7707642044929425,-0.6371205074963148,0.6371205074963148,0.7707642044929425,249.48078356634062,29.878270796206323)" fill="none" stroke="#00a19d"></use><use xlink:href="#bbburst-shape-8" width="32.07157111740685" opacity="0.3606805422030307" transform="matrix(0.8933484722482536,0.449364559274217,-0.449364559274217,0.8933484722482536,820.0326442535494,-98.4864681028418)" fill="none" stroke="#ffbd9b"></use><use xlink:href="#bbburst-shape-4" width="23.03811374540061" opacity="0.6225759078880646" transform="matrix(0.76996758520859,-0.6380830022246735,0.6380830022246735,0.76996758520859,231.0901356762197,240.04480335747667)" fill="#ffa6d5"></use><use xlink:href="#bbburst-shape-10" width="35.84081562184539" opacity="0.4628379628440765" transform="matrix(0.8239092173863227,-0.5667218025679418,0.5667218025679418,0.8239092173863227,224.94026553899994,-151.8337840093029)" fill="none" stroke="#ff5c58"></use><use xlink:href="#bbburst-shape-10" width="39.77872839419865" opacity="-0.06371747471113132" transform="matrix(0.9617663117929675,0.27387143242797796,-0.27387143242797796,0.9617663117929675,834.4865595177907,-322.93839019735407)" fill="none" stroke="#ffa6d5"></use><use xlink:href="#bbburst-shape-1" width="28.306067677164066" opacity="0.5396582992947987" transform="matrix(0.9296790867338274,0.36837045984953326,-0.36837045984953326,0.9296790867338274,384.35293593686356,-120.10878751901117)" fill="#00a19d"></use><use xlink:href="#bbburst-shape-8" width="19.671938383728698" opacity="0.6649426251983195" transform="matrix(0.896613810956934,-0.44281336249178754,0.44281336249178754,0.896613810956934,90.32833412639766,-40.457949294899606)" fill="none" stroke="#ffa6d5"></use><use xlink:href="#bbburst-shape-10" width="31.064978036826936" opacity="0.502487031359033" transform="matrix(0.98441363828019,0.1758686690913399,-0.1758686690913399,0.98441363828019,455.382523583541,227.38346386126943)" fill="none" stroke="#ff5c58"></use><use xlink:href="#bbburst-shape-4" width="10.291985305979335" opacity="0.8639737626132982" transform="matrix(0.7675750097542214,-0.6409591284947949,0.6409591284947949,0.7675750097542214,157.77540713746674,37.801916336967224)" fill="#2c2891"></use><use xlink:href="#bbburst-shape-4" width="34.711926695891854" opacity="0.4378526846604266" transform="matrix(0.996622588454879,0.08211830600722803,-0.08211830600722803,0.996622588454879,578.5593529383887,193.39713239731168)" fill="#00a19d"></use><use xlink:href="#bbburst-shape-10" width="27.98941325239369" opacity="0.4790803454181608" transform="matrix(0.7576205264194495,-0.6526952872113573,0.6526952872113573,0.7576205264194495,-56.83528547274054,249.84858490980537)" fill="none" stroke="#ff5c58"></use><use xlink:href="#bbburst-shape-10" width="35.81348963746056" opacity="0.1801903739534909" transform="matrix(0.9038341339670573,-0.42788299601178315,0.42788299601178315,0.9038341339670573,303.4761722925216,403.6903390507762)" fill="none" stroke="#2c2891"></use><use xlink:href="#bbburst-shape-1" width="14.055125917648663" opacity="0.890207295880833" transform="matrix(0.7588280228988862,-0.6512910498873506,0.6512910498873506,0.7588280228988862,84.87388586647126,97.64791848324785)" fill="#ffa6d5"></use><use xlink:href="#bbburst-shape-10" width="15.004188577138459" opacity="0.7779377316918749" transform="matrix(0.9085145699293518,0.4178531754409496,-0.4178531754409496,0.9085145699293518,471.7877967855999,79.79171631094704)" fill="none" stroke="#2c2891"></use><use xlink:href="#bbburst-shape-8" width="23.071171730090363" opacity="0.5676775997814869" transform="matrix(0.9344695646198862,0.3560430209948237,-0.3560430209948237,0.9344695646198862,688.5065337523514,137.16980047770113)" fill="none" stroke="#00a19d"></use><use xlink:href="#bbburst-shape-1" width="30.464647855294036" opacity="0.3284031742375597" transform="matrix(0.9999004843125174,-0.014107496999576087,0.014107496999576087,0.9999004843125174,88.02634557805168,81.51345230303639)" fill="#00a19d"></use><use xlink:href="#bbburst-shape-10" width="38.00252189942837" opacity="0.18337478108876848" transform="matrix(0.9662048336321728,-0.257775521463589,0.257775521463589,0.9662048336321728,-84.92422253781226,72.66614682615705)" fill="none" stroke="#00a19d"></use></svg>