<svg xmlns="http://www.w3.org/2000/svg" version="1.1" xmlns:xlink="http://www.w3.org/1999/xlink" xmlns:svgjs="http://svgjs.dev/svgjs" viewBox="0 0 800 800" opacity="1"><defs><filter id="bbburst-blur-1" x="-100%" y="-100%" width="400%" height="400%"><feGaussianBlur in="SourceGraphic" stdDeviation="1"></feGaussianBlur></filter><filter id="bbburst-blur-2" x="-100%" y="-100%" width="400%" height="400%"><feGaussianBlur in="SourceGraphic" stdDeviation="2"></feGaussianBlur></filter><filter id="bbburst-blur-3" x="-100%" y="-100%" width="400%" height="400%"><feGaussianBlur in="SourceGraphic" stdDeviation="4"></feGaussianBlur></filter><filter id="bbburst-blur-4" x="-100%" y="-100%" width="400%" height="400%"><feGaussianBlur in="SourceGraphic" stdDeviation="12"></feGaussianBlur></filter><symbol id="bbburst-shape-1" viewBox="0 0 194 167"><path d="m97 0 96.129 166.5H.871L97 0Z"></path></symbol><symbol id="bbburst-shape-4" viewBox="0 0 149 143"><path d="M71.647 2.781c.898-2.764 4.808-2.764 5.706 0l15.445 47.534a3 3 0 0 0 2.853 2.073h49.98c2.906 0 4.115 3.719 1.764 5.427L106.96 87.193a2.999 2.999 0 0 0-1.09 3.354l15.445 47.534c.898 2.764-2.266 5.062-4.617 3.354l-40.435-29.378a3 3 0 0 0-3.526 0l-40.435 29.378c-2.351 1.708-5.515-.59-4.617-3.354L43.13 90.547a3 3 0 0 0-1.09-3.354L1.605 57.815c-2.35-1.708-1.142-5.427 1.764-5.427h49.98a3 3 0 0 0 2.853-2.073L71.647 2.781Z"></path></symbol><symbol id="bbburst-shape-5" viewBox="0 0 145 145"><circle cx="72.5" cy="72.5" r="72.5"></circle></symbol><symbol id="bbburst-shape-8" viewBox="0 0 87 168"><path d="m12 12 31.2546 18.0749c16.4102 9.4902 20.014 31.6325 7.4603 45.8369L36.3296 92.1884c-12.5684 14.2206-8.9394 36.3916 7.5068 45.8636L75 156" stroke-width="14" stroke-linecap="round" stroke-linejoin="round"></path></symbol><symbol id="bbburst-shape-10" viewBox="0 0 145 145"><circle cx="72.5" cy="72.5" r="61.5" fill="none" stroke-width="22"></circle></symbol></defs><use xlink:href="#bbburst-shape-10" width="24.13218135856207" opacity="0.7115186679591206" transform="matrix(0.9220652320076407,-0.3870345048218515,0.3870345048218515,0.9220652320076407,204.39215771504115,162.2248398465071)" fill="none" stroke="#2c2891" filter="url(#bbburst-blur-1)"></use><use xlink:href="#bbburst-shape-8" width="23.8457284859797" opacity="0.3013367975108415" transform="matrix(1.166891095738529,-0.4481798419006986,0.4481798419006986,1.166891095738529,504.9547187875505,38.38355714248877)" fill="none" stroke="#2c2891" filter="url(#bbburst-blur-3)"></use><use xlink:href="#bbburst-shape-10" width="21.615258369168636" opacity="0.6667124547312251" transform="matrix(0.7678528048789045,-0.6406263107612729,0.6406263107612729,0.7678528048789045,149.44895686921564,-49.54217232832943)" fill="none" stroke="#2c2891" filter="url(#bbburst-blur-1)"></use><use xlink:href="#bbburst-shape-1" width="28.034295526046293" opacity="0.07923984812659535" transform="matrix(1.686908696652861,0.4656597998076981,-0.4656597998076981,1.686908696652861,769.02359708978,-640.4918314505879)" fill="#2c2891" filter="url(#bbburst-blur-4)"></use><use xlink:href="#bbburst-shape-10" width="21.343100075939105" opacity="0.7143209547885352" transform="matrix(0.9397056612574101,-0.34198431279924774,0.34198431279924774,0.9397056612574101,133.3662286201791,74.36805495387307)" fill="none" stroke="#ffbd9b" filter="url(#bbburst-blur-1)"></use><use xlink:href="#bbburst-shape-5" width="14.23722725310721" opacity="0.8273572091393157" transform="matrix(0.986102418947839,-0.16613855466212737,0.16613855466212737,0.986102418947839,338.27247439793734,83.53763850696834)" fill="#ff5c58"></use><use xlink:href="#bbburst-shape-1" width="28.189182775994105" opacity="0.5376638762490127" transform="matrix(0.9712702166589977,-0.23797933992509437,0.23797933992509437,0.9712702166589977,497.89875874120156,37.921905118020334)" fill="#ffa6d5" filter="url(#bbburst-blur-2)"></use><use xlink:href="#bbburst-shape-5" width="36.718383792557525" opacity="-0.08438216610479832" transform="matrix(1.4968872726218196,0.9065475680088773,-0.9065475680088773,1.4968872726218196,1077.1899815025972,-563.4165896319037)" fill="#00a19d" filter="url(#bbburst-blur-4)"></use><use xlink:href="#bbburst-shape-5" width="25.43301038533951" opacity="0.5890050777639033" transform="matrix(0.7337122959777257,-0.6794602760508477,0.6794602760508477,0.7337122959777257,275.79531874627867,17.252378959682346)" fill="#2c2891" filter="url(#bbburst-blur-1)"></use><use xlink:href="#bbburst-shape-4" width="35.69717456306408" opacity="0.15721066720929333" transform="matrix(1.0458969960850462,0.6845432591007503,-0.6845432591007503,1.0458969960850462,1018.1588339275294,-140.28184814446337)" fill="#2c2891" filter="url(#bbburst-blur-3)"></use><use xlink:href="#bbburst-shape-8" width="35.32297474699584" opacity="0.19738643912990095" transform="matrix(0.9535790258682929,-0.8081998771492592,0.8081998771492592,0.9535790258682929,72.81067241438978,-328.1020903550181)" fill="none" stroke="#ffa6d5" filter="url(#bbburst-blur-3)"></use><use xlink:href="#bbburst-shape-8" width="39.96816361062403" opacity="0.213310737758022" transform="matrix(0.930560332007357,0.8346001848156741,-0.8346001848156741,0.930560332007357,608.8452029607689,348.73979499255415)" fill="none" stroke="#ffa6d5" filter="url(#bbburst-blur-3)"></use><use xlink:href="#bbburst-shape-1" width="40.486614473155" opacity="0.37193734564488345" transform="matrix(0.8226373865287878,0.5685663815994451,-0.5685663815994451,0.8226373865287878,332.3366183261237,10.815918774845159)" fill="#ffa6d5" filter="url(#bbburst-blur-2)"></use><use xlink:href="#bbburst-shape-10" width="22.047100332670716" opacity="0.6285662933376792" transform="matrix(0.8338055342737052,-0.5520582677712028,0.5520582677712028,0.8338055342737052,290.06849193258887,188.8282517955733)" fill="none" stroke="#ffbd9b" filter="url(#bbburst-blur-1)"></use><use xlink:href="#bbburst-shape-10" width="36.56041598112647" opacity="0.06903183687326342" transform="matrix(1.7087525563809067,0.3777098106506054,-0.3777098106506054,1.7087525563809067,307.41182402464773,70.6735058515336)" fill="none" stroke="#ffa6d5" filter="url(#bbburst-blur-4)"></use><use xlink:href="#bbburst-shape-4" width="17.93757795896819" opacity="0.8616924026409244" transform="matrix(0.9553132243001234,-0.29559540503414816,0.29559540503414816,0.9553132243001234,232.11001465306506,-26.206297800284972)" fill="#ffa6d5"></use><use xlink:href="#bbburst-shape-4" width="15.72810729923206" opacity="0.7088305758581479" transform="matrix(0.8405226538198418,0.5417764007555611,-0.5417764007555611,0.8405226538198418,496.3379342696062,-5.478282326190822)" fill="#ffa6d5" filter="url(#bbburst-blur-1)"></use><use xlink:href="#bbburst-shape-4" width="22.8163851394128" opacity="0.6145376016404833" transform="matrix(0.8224592076015065,0.5688240956846871,-0.5688240956846871,0.8224592076015065,449.6300563326498,105.69952422918203)" fill="#00a19d" filter="url(#bbburst-blur-1)"></use><use xlink:href="#bbburst-shape-8" width="30.363775804406423" opacity="0.3412882955986697" transform="matrix(0.993337791750537,-0.1152390189135898,0.1152390189135898,0.993337791750537,122.50787839432766,207.07786359281863)" fill="none" stroke="#ffa6d5" filter="url(#bbburst-blur-2)"></use><use xlink:href="#bbburst-shape-4" width="27.898694494110245" opacity="0.6372149662404831" transform="matrix(0.9893584466679197,-0.1454986735569815,0.1454986735569815,0.9893584466679197,353.557479066017,167.55214675054197)" fill="#ffbd9b" filter="url(#bbburst-blur-1)"></use><use xlink:href="#bbburst-shape-8" width="26.239930200528374" opacity="0.32024536965562667" transform="matrix(1.056305472474801,0.6683702183818391,-0.6683702183818391,1.056305472474801,943.1572340061377,-129.58151104086988)" fill="none" stroke="#00a19d" filter="url(#bbburst-blur-3)"></use><use xlink:href="#bbburst-shape-8" width="37.31622754155809" opacity="0.4239813269553008" transform="matrix(0.9986221357788931,0.052476946675677684,-0.052476946675677684,0.9986221357788931,324.68900027635857,-247.72630172057052)" fill="none" stroke="#ffa6d5" filter="url(#bbburst-blur-2)"></use><use xlink:href="#bbburst-shape-8" width="28.446785938198147" opacity="0.4378957570947022" transform="matrix(0.7372668175294393,-0.6756016872166709,0.6756016872166709,0.7372668175294393,10.971474700978263,343.29165391210984)" fill="none" stroke="#ff5c58" filter="url(#bbburst-blur-2)"></use><use xlink:href="#bbburst-shape-4" width="26.054292416716702" opacity="0.6117298474845324" transform="matrix(0.9998710670193759,-0.016057687801633067,0.016057687801633067,0.9998710670193759,295.4064431025652,152.8553602052553)" fill="#00a19d" filter="url(#bbburst-blur-1)"></use><use xlink:href="#bbburst-shape-8" width="38.37055318303906" opacity="0.24428167071672702" transform="matrix(0.9952531016469958,-0.7562878180045178,0.7562878180045178,0.9952531016469958,348.9616723080929,222.42082412914135)" fill="none" stroke="#2c2891" filter="url(#bbburst-blur-3)"></use><use xlink:href="#bbburst-shape-8" width="20.710090068878923" opacity="0.5999950395435243" transform="matrix(0.9040202699557478,0.4274895922816564,-0.4274895922816564,0.9040202699557478,645.8486718219146,193.05262614180526)" fill="none" stroke="#ff5c58" filter="url(#bbburst-blur-1)"></use><use xlink:href="#bbburst-shape-8" width="12.779130591519785" opacity="0.8182456096524255" transform="matrix(0.7823480303655416,0.6228415202787605,-0.6228415202787605,0.7823480303655416,700.7519655677123,24.05273098913898)" fill="none" stroke="#2c2891"></use><use xlink:href="#bbburst-shape-4" width="21.91607713710342" opacity="0.5916693698323328" transform="matrix(0.7958154121964737,0.6055392883294665,-0.6055392883294665,0.7958154121964737,799.479433411453,153.85017439682065)" fill="#00a19d" filter="url(#bbburst-blur-1)"></use><use xlink:href="#bbburst-shape-10" width="19.81544950464633" opacity="0.7205830137971923" transform="matrix(0.7258715023233061,-0.687830329452625,0.687830329452625,0.7258715023233061,234.0724156437185,68.90715036856795)" fill="none" stroke="#ffbd9b" filter="url(#bbburst-blur-1)"></use><use xlink:href="#bbburst-shape-1" width="43.166613336473844" opacity="0.1630355117532275" transform="matrix(1.0462486625585732,0.6840056550163871,-0.6840056550163871,1.0462486625585732,287.6443186596832,65.98433928798289)" fill="#ffa6d5" filter="url(#bbburst-blur-3)"></use><use xlink:href="#bbburst-shape-1" width="26.74454138861747" opacity="0.4730732682020581" transform="matrix(0.9966132201544801,0.08223192453857527,-0.08223192453857527,0.9966132201544801,458.7500092669679,234.1459376769219)" fill="#ffa6d5" filter="url(#bbburst-blur-2)"></use><use xlink:href="#bbburst-shape-5" width="28.912874000518492" opacity="0.6274538793596041" transform="matrix(0.776728277282001,0.6298358383503871,-0.6298358383503871,0.776728277282001,805.7497089092567,50.783411259026195)" fill="#ff5c58" filter="url(#bbburst-blur-1)"></use><use xlink:href="#bbburst-shape-4" width="29.53531833426026" opacity="0.3395893091075257" transform="matrix(0.9886799452709772,-0.1500398807616741,0.1500398807616741,0.9886799452709772,32.440040660007284,56.775972947641264)" fill="#2c2891" filter="url(#bbburst-blur-2)"></use><use xlink:href="#bbburst-shape-8" width="14.920634972904129" opacity="0.8868676142716595" transform="matrix(0.9939573572464006,0.10976689836080501,-0.10976689836080501,0.9939573572464006,385.76879944878743,-2.759395752559442)" fill="none" stroke="#ffa6d5"></use><use xlink:href="#bbburst-shape-10" width="28.604093834213987" opacity="0.18201310915948632" transform="matrix(1.1521686085152416,-0.48477571881443465,0.48477571881443465,1.1521686085152416,159.7690842076665,312.9482588675004)" fill="none" stroke="#ffa6d5" filter="url(#bbburst-blur-3)"></use><use xlink:href="#bbburst-shape-8" width="38.08369818616187" opacity="0.2510443951300322" transform="matrix(1.0344007211658766,-0.7017942348377582,0.7017942348377582,1.0344007211658766,373.5329828482608,-196.71788921428862)" fill="none" stroke="#00a19d" filter="url(#bbburst-blur-3)"></use><use xlink:href="#bbburst-shape-5" width="25.45896871391025" opacity="0.5377672512145999" transform="matrix(0.9710527705716658,0.2388650597410424,-0.2388650597410424,0.9710527705716658,278.9173194767538,-30.71326436498441)" fill="#2c2891" filter="url(#bbburst-blur-2)"></use><use xlink:href="#bbburst-shape-10" width="16.430394881913568" opacity="0.750200727464666" transform="matrix(0.9480913151707119,-0.31799820455133054,0.31799820455133054,0.9480913151707119,279.53166541741825,134.84388213581076)" fill="none" stroke="#00a19d" filter="url(#bbburst-blur-1)"></use><use xlink:href="#bbburst-shape-4" width="38.03741069874508" opacity="0.3014379736364029" transform="matrix(1.222126405372142,0.26250152245685493,-0.26250152245685493,1.222126405372142,677.5714888365145,152.10770807463973)" fill="#ffa6d5" filter="url(#bbburst-blur-3)"></use><use xlink:href="#bbburst-shape-5" width="13.51435350552401" opacity="0.8601455888533417" transform="matrix(0.972591421754829,0.2325208083783474,-0.2325208083783474,0.972591421754829,482.4845243698752,-53.41804917601905)" fill="#2c2891"></use><use xlink:href="#bbburst-shape-8" width="39.423256999054495" opacity="0.061183200367707746" transform="matrix(1.7499834519641522,0.007610377890104466,-0.007610377890104466,1.7499834519641522,18.938506220197294,-537.3169155707103)" fill="none" stroke="#2c2891" filter="url(#bbburst-blur-4)"></use><use xlink:href="#bbburst-shape-4" width="26.828151030772162" opacity="0.38211640662197155" transform="matrix(0.9906925843607676,-0.1361183429688426,0.1361183429688426,0.9906925843607676,341.23755171121036,-272.3298592731311)" fill="#00a19d" filter="url(#bbburst-blur-2)"></use><use xlink:href="#bbburst-shape-5" width="13.957179431153376" opacity="0.8846044537742309" transform="matrix(0.8745733248786153,-0.4848932866216691,0.4848932866216691,0.8745733248786153,245.84955091660697,29.289887235272317)" fill="#ffa6d5"></use><use xlink:href="#bbburst-shape-5" width="41.841075923981016" opacity="0.1925435010303096" transform="matrix(1.0057484156709222,-0.7422736182671654,0.7422736182671654,1.0057484156709222,188.98359805501275,-334.0346369189961)" fill="#ffbd9b" filter="url(#bbburst-blur-3)"></use><use xlink:href="#bbburst-shape-8" width="35.06110614997022" opacity="0.09766218925731951" transform="matrix(1.6933230916107234,-0.44176567025732305,0.44176567025732305,1.6933230916107234,-65.60828092903338,-582.130389287694)" fill="none" stroke="#00a19d" filter="url(#bbburst-blur-4)"></use><use xlink:href="#bbburst-shape-10" width="15.003380094713044" opacity="0.8322299634798229" transform="matrix(0.8536246627015458,0.5208886015528389,-0.5208886015528389,0.8536246627015458,530.0011210350439,77.50791020219577)" fill="none" stroke="#ffa6d5"></use><use xlink:href="#bbburst-shape-10" width="38.35503964994225" opacity="0.46474341834405686" transform="matrix(0.9999585525430152,0.009104570065506157,-0.009104570065506157,0.9999585525430152,234.5257349110729,-188.66359455623004)" fill="none" stroke="#ffbd9b" filter="url(#bbburst-blur-2)"></use><use xlink:href="#bbburst-shape-4" width="30.89458943053071" opacity="0.05676868279369751" transform="matrix(1.7453915145160164,-0.12691911225456523,0.12691911225456523,1.7453915145160164,678.9560186558912,-526.2327089264728)" fill="#2c2891" filter="url(#bbburst-blur-4)"></use><use xlink:href="#bbburst-shape-5" width="15.580060768005065" opacity="0.8175974957471583" transform="matrix(0.9998687817743185,-0.01619935903486228,0.01619935903486228,0.9998687817743185,354.45323014514105,76.06674480041175)" fill="#ffbd9b"></use><use xlink:href="#bbburst-shape-8" width="9.686131919911027" opacity="0.9675206592290262" transform="matrix(0.8668614775659914,0.4985490735244687,-0.4985490735244687,0.8668614775659914,603.6903076480592,38.92890275055544)" fill="none" stroke="#2c2891"></use><use xlink:href="#bbburst-shape-4" width="13.729243232120472" opacity="0.7823754036191266" transform="matrix(0.9898605659707269,0.14204245821623943,-0.14204245821623943,0.9898605659707269,414.5233043743678,-88.17833440329883)" fill="#ff5c58"></use><use xlink:href="#bbburst-shape-8" width="25.286713086465106" opacity="0.553522630928199" transform="matrix(0.7208503333719092,-0.6930907565951283,0.6930907565951283,0.7208503333719092,84.83995643155151,-78.41567204443214)" fill="none" stroke="#00a19d" filter="url(#bbburst-blur-2)"></use><use xlink:href="#bbburst-shape-5" width="28.403452764885458" opacity="0.48454640317044395" transform="matrix(0.9615439904142863,-0.274650968500333,0.274650968500333,0.9615439904142863,500.2419962561145,-41.832329025019476)" fill="#00a19d" filter="url(#bbburst-blur-2)"></use><use xlink:href="#bbburst-shape-4" width="28.722157033264317" opacity="0.2987237705908068" transform="matrix(1.1375626605778546,0.5181227588699733,-0.5181227588699733,1.1375626605778546,714.2753442894132,228.0209775803878)" fill="#ff5c58" filter="url(#bbburst-blur-3)"></use><use xlink:href="#bbburst-shape-4" width="18.016862610125855" opacity="0.7890019764193543" transform="matrix(0.9776243890418146,-0.21035815636817798,0.21035815636817798,0.9776243890418146,400.2167358065325,29.18888667420481)" fill="#00a19d"></use><use xlink:href="#bbburst-shape-1" width="42.590049738974095" opacity="-0.08553426760206428" transform="matrix(1.731553592030285,-0.2534209105954309,0.2534209105954309,1.731553592030285,604.6978404419857,60.756437307384886)" fill="#2c2891" filter="url(#bbburst-blur-4)"></use><use xlink:href="#bbburst-shape-4" width="37.10988772262324" opacity="0.20810326314391847" transform="matrix(1.0185256784308163,0.7246415958092977,-0.7246415958092977,1.0185256784308163,590.6918993021231,-368.02354061778584)" fill="#2c2891" filter="url(#bbburst-blur-3)"></use><use xlink:href="#bbburst-shape-5" width="21.64548350116641" opacity="0.727652577014789" transform="matrix(0.8339600916573653,-0.5518247597950268,0.5518247597950268,0.8339600916573653,274.4691002559571,136.86503392857395)" fill="#00a19d" filter="url(#bbburst-blur-1)"></use><use xlink:href="#bbburst-shape-8" width="35.72018175328017" opacity="0.2789019848271632" transform="matrix(0.9411196164503643,-0.8226748249049067,0.8226748249049067,0.9411196164503643,-237.17866711656,-104.72538936102427)" fill="none" stroke="#ffa6d5" filter="url(#bbburst-blur-3)"></use><use xlink:href="#bbburst-shape-1" width="13.596851896372165" opacity="0.8695824449144963" transform="matrix(0.8124807770506911,-0.5829879817998868,0.5829879817998868,0.8124807770506911,218.98364086028928,89.74990835006503)" fill="#ffa6d5"></use><use xlink:href="#bbburst-shape-4" width="40.69840790726596" opacity="0.1384855797989909" transform="matrix(1.0232045293365875,0.7180198403561648,-0.7180198403561648,1.0232045293365875,391.9521372873462,250.00116424207403)" fill="#2c2891" filter="url(#bbburst-blur-3)"></use><use xlink:href="#bbburst-shape-10" width="18.851247696491875" opacity="0.761287917233691" transform="matrix(0.8730975896982844,0.4875454838915506,-0.4875454838915506,0.8730975896982844,630.596822030154,-51.9160481639168)" fill="none" stroke="#00a19d" filter="url(#bbburst-blur-1)"></use><use xlink:href="#bbburst-shape-4" width="18.390499815678993" opacity="0.675563768508303" transform="matrix(0.792341212786854,0.6100781937747467,-0.6100781937747467,0.792341212786854,592.9384341155828,-61.8053316842462)" fill="#ffa6d5" filter="url(#bbburst-blur-1)"></use><use xlink:href="#bbburst-shape-8" width="41.162172611930245" opacity="0.28354974936752986" transform="matrix(1.0118275247771626,-0.7339652989776289,0.7339652989776289,1.0118275247771626,-154.26180685226595,-205.06628868535122)" fill="none" stroke="#2c2891" filter="url(#bbburst-blur-3)"></use><use xlink:href="#bbburst-shape-8" width="35.00958873431245" opacity="0.27244433628592546" transform="matrix(1.0439335678082642,-0.6875337853539332,0.6875337853539332,1.0439335678082642,141.4725228553893,320.01131474737207)" fill="none" stroke="#ff5c58" filter="url(#bbburst-blur-3)"></use><use xlink:href="#bbburst-shape-8" width="26.371815151174893" opacity="0.438328865223623" transform="matrix(0.896984722301746,-0.4420615431783902,0.4420615431783902,0.896984722301746,441.9917382523611,150.41287981808358)" fill="none" stroke="#ff5c58" filter="url(#bbburst-blur-2)"></use><use xlink:href="#bbburst-shape-1" width="27.186790472285114" opacity="0.14183216889481143" transform="matrix(1.245475947315233,0.10625283365267366,-0.10625283365267366,1.245475947315233,789.6208669983671,29.23606150670423)" fill="#00a19d" filter="url(#bbburst-blur-3)"></use><use xlink:href="#bbburst-shape-5" width="37.93099151661026" opacity="0.1483142053433576" transform="matrix(1.0036019225817585,0.7451732556863526,-0.7451732556863526,1.0036019225817585,315.58295715653514,-137.18509751206034)" fill="#ffbd9b" filter="url(#bbburst-blur-3)"></use><use xlink:href="#bbburst-shape-10" width="38.58713265831588" opacity="0.2700417235678805" transform="matrix(1.2395285350412324,-0.16145900661943963,0.16145900661943963,1.2395285350412324,136.9346904076138,185.55960690563973)" fill="none" stroke="#ffa6d5" filter="url(#bbburst-blur-3)"></use><use xlink:href="#bbburst-shape-5" width="42.02577813634559" opacity="0.08087568912942877" transform="matrix(1.7164829237736587,-0.3408612216040886,0.3408612216040886,1.7164829237736587,462.67971501653074,60.865355094838606)" fill="#2c2891" filter="url(#bbburst-blur-4)"></use><use xlink:href="#bbburst-shape-8" width="27.30997861668402" opacity="0.4302797100209582" transform="matrix(0.8294124239171139,-0.5586367612786843,0.5586367612786843,0.8294124239171139,374.20043449434195,-72.6451509377292)" fill="none" stroke="#00a19d" filter="url(#bbburst-blur-2)"></use><use xlink:href="#bbburst-shape-1" width="10.097838479171248" opacity="0.860185867323153" transform="matrix(0.9235692472894916,0.3834316698723802,-0.3834316698723802,0.9235692472894916,579.5493419042211,83.4852117999477)" fill="#ffa6d5"></use><use xlink:href="#bbburst-shape-10" width="20.181719860696255" opacity="0.7475666288866879" transform="matrix(0.9360119621493804,-0.35196818991674067,0.35196818991674067,0.9360119621493804,174.92017346581974,-56.30308567824619)" fill="none" stroke="#ffbd9b" filter="url(#bbburst-blur-1)"></use><use xlink:href="#bbburst-shape-8" width="32.05095916248742" opacity="0.5186156032964087" transform="matrix(0.9236299128518721,0.38328551249067994,-0.38328551249067994,0.9236299128518721,669.9068100612374,-147.81820102522332)" fill="none" stroke="#00a19d" filter="url(#bbburst-blur-2)"></use><use xlink:href="#bbburst-shape-10" width="14.82010590637017" opacity="0.8090010217225226" transform="matrix(0.9878905746983584,0.15515222338770165,-0.15515222338770165,0.9878905746983584,374.94786718055786,-28.25036488789641)" fill="none" stroke="#ffa6d5"></use><use xlink:href="#bbburst-shape-1" width="27.02709661155442" opacity="0.574130574269184" transform="matrix(0.9370315595333587,0.34924469421665044,-0.34924469421665044,0.9370315595333587,495.0467924206971,209.4551916403351)" fill="#ffa6d5" filter="url(#bbburst-blur-1)"></use><use xlink:href="#bbburst-shape-4" width="42.00760943346471" opacity="0.05069904686274096" transform="matrix(1.6579226635653617,0.5601717965377553,-0.5601717965377553,1.6579226635653617,940.3482745733129,-31.56205544946829)" fill="#ffbd9b" filter="url(#bbburst-blur-4)"></use><use xlink:href="#bbburst-shape-10" width="17.641846992729413" opacity="0.8218104098416011" transform="matrix(0.868786660681756,0.49518656910445713,-0.49518656910445713,0.868786660681756,652.0709625062866,99.37894790857649)" fill="none" stroke="#ffa6d5"></use><use xlink:href="#bbburst-shape-8" width="24.140118204249436" opacity="0.736363266820576" transform="matrix(0.9525834010696175,0.3042776100974902,-0.3042776100974902,0.9525834010696175,571.5534051727107,116.84210781256081)" fill="none" stroke="#ffbd9b" filter="url(#bbburst-blur-1)"></use><use xlink:href="#bbburst-shape-10" width="12.77116923883245" opacity="0.9387332175754939" transform="matrix(0.8497972012656289,-0.5271097767269207,0.5271097767269207,0.8497972012656289,163.59169475825277,44.61696103944115)" fill="none" stroke="#ff5c58"></use><use xlink:href="#bbburst-shape-1" width="37.25529845717368" opacity="0.3241326247576197" transform="matrix(1.0111850394289565,0.7348501997244468,-0.7348501997244468,1.0111850394289565,854.0653749024083,-264.00330977685314)" fill="#00a19d" filter="url(#bbburst-blur-3)"></use><use xlink:href="#bbburst-shape-5" width="23.368941983487325" opacity="0.6653207336819592" transform="matrix(0.8926640246409873,0.4507226853751149,-0.4507226853751149,0.8926640246409873,421.02382692884044,14.641376332508344)" fill="#2c2891" filter="url(#bbburst-blur-1)"></use><use xlink:href="#bbburst-shape-10" width="13.413908756805357" opacity="0.897173174516134" transform="matrix(0.985060454576999,-0.17220888719388472,0.17220888719388472,0.985060454576999,317.6144997894145,52.886261404868605)" fill="none" stroke="#ffa6d5"></use><use xlink:href="#bbburst-shape-5" width="32.00188584963625" opacity="0.5358777716658523" transform="matrix(0.9956451455818546,0.09322416038392448,-0.09322416038392448,0.9956451455818546,470.6938554066176,-202.6941213691466)" fill="#ff5c58" filter="url(#bbburst-blur-2)"></use><use xlink:href="#bbburst-shape-5" width="34.80007304445271" opacity="0.09334485242427681" transform="matrix(1.6524897692525373,-0.5760013563488339,0.5760013563488339,1.6524897692525373,-43.966227487667396,-614.7098861142227)" fill="#ff5c58" filter="url(#bbburst-blur-4)"></use><use xlink:href="#bbburst-shape-10" width="26.4899208939184" opacity="0.38407348490529025" transform="matrix(0.9867074268659967,-0.1625067806815577,0.1625067806815577,0.9867074268659967,599.0625780736536,11.730140138140825)" fill="none" stroke="#2c2891" filter="url(#bbburst-blur-2)"></use><use xlink:href="#bbburst-shape-5" width="11.0666990993472" opacity="0.924164676386734" transform="matrix(0.7664100173986954,-0.6423516834499085,0.6423516834499085,0.7664100173986954,159.90794028266725,123.81967615337055)" fill="#2c2891"></use><use xlink:href="#bbburst-shape-5" width="43.89281792157837" opacity="0.29342445552824103" transform="matrix(1.2266608607693272,0.24042282058210168,-0.24042282058210168,1.2266608607693272,310.63552251631586,-371.5127049499435)" fill="#00a19d" filter="url(#bbburst-blur-3)"></use><use xlink:href="#bbburst-shape-10" width="20.484224610167047" opacity="0.6885768859223258" transform="matrix(0.9421007175417124,-0.33533004340111044,0.33533004340111044,0.9421007175417124,394.8121869839693,47.36030052625108)" fill="none" stroke="#2c2891" filter="url(#bbburst-blur-1)"></use><use xlink:href="#bbburst-shape-1" width="13.97058930166435" opacity="0.7796060756883659" transform="matrix(0.9416280979211271,-0.3366549052151776,0.3366549052151776,0.9416280979211271,179.3533636814663,85.12843283131184)" fill="#00a19d"></use><use xlink:href="#bbburst-shape-10" width="35.01032099825252" opacity="0.27151456448738853" transform="matrix(1.1235969946440998,-0.5477497545656655,0.5477497545656655,1.1235969946440998,-128.75319260572786,113.03486402216822)" fill="none" stroke="#2c2891" filter="url(#bbburst-blur-3)"></use><use xlink:href="#bbburst-shape-4" width="35.49543514634388" opacity="0.4492155624019376" transform="matrix(0.9396810544095768,-0.3420519200117225,0.3420519200117225,0.9396810544095768,31.956903267760993,-93.85525987831818)" fill="#ffa6d5" filter="url(#bbburst-blur-2)"></use><use xlink:href="#bbburst-shape-8" width="20.496676839386552" opacity="0.6236146875974187" transform="matrix(0.9060210156424663,-0.42323270102178295,0.42323270102178295,0.9060210156424663,85.40576905042835,142.85976017641548)" fill="none" stroke="#ff5c58" filter="url(#bbburst-blur-1)"></use><use xlink:href="#bbburst-shape-5" width="24.13251212563224" opacity="0.4626632845211174" transform="matrix(0.7917538774118407,-0.6108402390177943,0.6108402390177943,0.7917538774118407,259.4627423883742,304.25557135302364)" fill="#00a19d" filter="url(#bbburst-blur-2)"></use><use xlink:href="#bbburst-shape-8" width="31.808340497142495" opacity="0.1338515373395508" transform="matrix(1.2365710569363135,0.18273483835166374,-0.18273483835166374,1.2365710569363135,712.8346087599355,-388.4401918394236)" fill="none" stroke="#ffa6d5" filter="url(#bbburst-blur-3)"></use><use xlink:href="#bbburst-shape-4" width="21.12457332070533" opacity="0.6969958773118092" transform="matrix(0.7446611939258242,0.6674426614031845,-0.6674426614031845,0.7446611939258242,757.1221469457291,0.31992827389899503)" fill="#2c2891" filter="url(#bbburst-blur-1)"></use><use xlink:href="#bbburst-shape-10" width="16.095379791711487" opacity="0.7263240450967788" transform="matrix(0.964881800428951,0.26268443273438563,-0.26268443273438563,0.964881800428951,423.1958981326377,110.29101675791014)" fill="none" stroke="#ff5c58" filter="url(#bbburst-blur-1)"></use><use xlink:href="#bbburst-shape-10" width="38.30738295504332" opacity="0.38589903991442476" transform="matrix(0.8913240212076231,0.45336683736051175,-0.45336683736051175,0.8913240212076231,662.4167474392799,-223.54427563370888)" fill="none" stroke="#00a19d" filter="url(#bbburst-blur-2)"></use><use xlink:href="#bbburst-shape-10" width="24.418528846749563" opacity="0.14209282764724274" transform="matrix(1.2376318264018755,0.1754065628109674,-0.1754065628109674,1.2376318264018755,575.7217808479905,269.52052901499945)" fill="none" stroke="#ff5c58" filter="url(#bbburst-blur-3)"></use><use xlink:href="#bbburst-shape-4" width="41.462056116359605" opacity="0.4061376040461" transform="matrix(0.9979133281439533,-0.06456771261752053,0.06456771261752053,0.9979133281439533,316.79131996403794,266.91737409065666)" fill="#00a19d" filter="url(#bbburst-blur-2)"></use><use xlink:href="#bbburst-shape-5" width="45.57614360966732" opacity="0.20027901361929268" transform="matrix(0.8973265558713355,-0.8702327574437124,0.8702327574437124,0.8973265558713355,-328.09750911904615,45.76628958082)" fill="#ffa6d5" filter="url(#bbburst-blur-3)"></use><use xlink:href="#bbburst-shape-4" width="40.442723338595194" opacity="0.20395109328609506" transform="matrix(1.0959484830826232,-0.6011629749318378,0.6011629749318378,1.0959484830826232,495.55419515242613,-19.461155808475098)" fill="#ffbd9b" filter="url(#bbburst-blur-3)"></use><use xlink:href="#bbburst-shape-4" width="34.69073215360354" opacity="0.4639461235979634" transform="matrix(0.8034486976220147,0.5953739919491684,-0.5953739919491684,0.8034486976220147,411.1715597434536,181.5013120508351)" fill="#00a19d" filter="url(#bbburst-blur-2)"></use><use xlink:href="#bbburst-shape-1" width="37.969562826945115" opacity="-0.09301292619192258" transform="matrix(1.7224184060372152,-0.30947509519219607,0.30947509519219607,1.7224184060372152,-100.89552497155717,-634.1436458963184)" fill="#2c2891" filter="url(#bbburst-blur-4)"></use><use xlink:href="#bbburst-shape-8" width="16.590951628528664" opacity="0.8826064512188546" transform="matrix(0.9347941148985276,0.3551900375166488,-0.3551900375166488,0.9347941148985276,495.22553688491087,58.663515867368176)" fill="none" stroke="#ffbd9b"></use><use xlink:href="#bbburst-shape-8" width="37.2340002612894" opacity="-0.08446281305442405" transform="matrix(1.7474562435890906,-0.09432219644126548,0.09432219644126548,1.7474562435890906,-13.261507652800411,49.90878588686542)" fill="none" stroke="#ffbd9b" filter="url(#bbburst-blur-4)"></use><use xlink:href="#bbburst-shape-4" width="16.58732422341427" opacity="0.7746451916793751" transform="matrix(0.9928316934125493,0.11952082896118835,-0.11952082896118835,0.9928316934125493,442.3412621220944,-99.48084583174199)" fill="#ffbd9b" filter="url(#bbburst-blur-1)"></use><use xlink:href="#bbburst-shape-10" width="14.842791272171882" opacity="0.8008634441626639" transform="matrix(0.9319632621950302,-0.36255272432957575,0.36255272432957575,0.9319632621950302,335.0164894068347,8.244206323563674)" fill="none" stroke="#ffbd9b"></use><use xlink:href="#bbburst-shape-10" width="42.70966716031377" opacity="0.06210046705187733" transform="matrix(1.6669180962688888,-0.5328077142190266,0.5328077142190266,1.6669180962688888,-207.3742792512485,-32.90941088109264)" fill="none" stroke="#ffbd9b" filter="url(#bbburst-blur-4)"></use><use xlink:href="#bbburst-shape-1" width="11.634970100156545" opacity="0.9607815320402889" transform="matrix(0.993089841755986,-0.11735657715301097,0.11735657715301097,0.993089841755986,335.41632716938807,16.525844780580428)" fill="#ff5c58"></use><use xlink:href="#bbburst-shape-4" width="35.352701485233474" opacity="0.4670364846105918" transform="matrix(0.7071939638254873,-0.70701958779711,0.70701958779711,0.7071939638254873,283.0307049611697,290.02775008392183)" fill="#00a19d" filter="url(#bbburst-blur-2)"></use><use xlink:href="#bbburst-shape-5" width="27.70896670454888" opacity="0.5026293831623481" transform="matrix(0.7559919740926853,-0.6545808850764318,0.6545808850764318,0.7559919740926853,-22.77189250345694,272.36470431530506)" fill="#ffa6d5" filter="url(#bbburst-blur-2)"></use><use xlink:href="#bbburst-shape-10" width="19.50473996514567" opacity="0.7610912278085635" transform="matrix(0.7916722443173092,-0.6109460349143734,0.6109460349143734,0.7916722443173092,40.403782089521854,90.8825913559698)" fill="none" stroke="#ff5c58" filter="url(#bbburst-blur-1)"></use><use xlink:href="#bbburst-shape-4" width="23.29499839825831" opacity="0.49121609138057565" transform="matrix(0.9768326940991504,-0.2140044105596789,0.2140044105596789,0.9768326940991504,76.66425383668906,46.133478830394495)" fill="#00a19d" filter="url(#bbburst-blur-2)"></use><use xlink:href="#bbburst-shape-10" width="27.433621724745166" opacity="0.6431332003775999" transform="matrix(0.7591938378820621,-0.6508645915410557,0.6508645915410557,0.7591938378820621,203.83446933937034,-36.964030784169665)" fill="none" stroke="#00a19d" filter="url(#bbburst-blur-1)"></use><use xlink:href="#bbburst-shape-10" width="28.70739812331103" opacity="0.6095068852298552" transform="matrix(0.823702969892349,0.567021531681579,-0.567021531681579,0.823702969892349,517.3773512043394,-83.7393455158983)" fill="none" stroke="#ffa6d5" filter="url(#bbburst-blur-1)"></use><use xlink:href="#bbburst-shape-1" width="9.00631403847446" opacity="0.9341884441978917" transform="matrix(0.9305774140340235,-0.3660951740869436,0.3660951740869436,0.9305774140340235,278.82784289997977,32.531364213624045)" fill="#ffa6d5"></use><use xlink:href="#bbburst-shape-8" width="27.109805216105983" opacity="0.5917117323353955" transform="matrix(0.7403008669881509,-0.6722757070849668,0.6722757070849668,0.7403008669881509,-32.2918674640371,11.792755112242617)" fill="none" stroke="#ffa6d5" filter="url(#bbburst-blur-1)"></use><use xlink:href="#bbburst-shape-4" width="16.41582461513618" opacity="0.8989994652854125" transform="matrix(0.9699411483011094,-0.24333961624101635,0.24333961624101635,0.9699411483011094,310.6543062116393,-28.525164770876415)" fill="#00a19d"></use></svg>